<svg preserveAspectRatio="none" overflow="visible" style="display: block;" width="14" height="14" viewBox="0 0 14 14" fill="none" xmlns="http://www.w3.org/2000/svg">
<g id="Icon">
<path id="Vector" d="M3.20833 3.5H2.625C2.14175 3.5 1.75 3.89175 1.75 4.375V10.7917C1.75 11.2749 2.14175 11.6667 2.625 11.6667H3.20833C3.69158 11.6667 4.08333 11.2749 4.08333 10.7917V4.375C4.08333 3.89175 3.69158 3.5 3.20833 3.5Z" fill="#B8A9D4"/>
<path id="Vector_2" d="M7.29167 5.83333H6.70833C6.22508 5.83333 5.83333 6.22508 5.83333 6.70833V10.7917C5.83333 11.2749 6.22508 11.6667 6.70833 11.6667H7.29167C7.77492 11.6667 8.16667 11.2749 8.16667 10.7917V6.70833C8.16667 6.22508 7.77492 5.83333 7.29167 5.83333Z" fill="#B8A9D4"/>
<path id="Vector_3" d="M11.375 1.75H10.7917C10.3084 1.75 9.91667 2.14175 9.91667 2.625V10.7917C9.91667 11.2749 10.3084 11.6667 10.7917 11.6667H11.375C11.8582 11.6667 12.25 11.2749 12.25 10.7917V2.625C12.25 2.14175 11.8582 1.75 11.375 1.75Z" fill="#B8A9D4"/>
</g>
</svg>
